# xmcd CD database file
#
# Track frame offsets:
#	150
#	12695
#	28860
#	44395
#	64015
#	79997
#	95827
#	106807
#	123237
#	139472
#	148142
#	162327
#
# Disc length: 2327 seconds
#
# Revision: 6
# Processed by: cddbd v1.5.1PL2 Copyright (c) Steve Scherf et al.
# Submitted via: CDex 1.51
#
DISCID=b109150c
DTITLE=Pizzicato Five - Couples - A Collection of Some Bacharach-ish Syncopations and AABA's...
DYEAR=1987
DGENRE=Jazz
TTITLE0=Magical Connections
TTITLE1=Summertime, Summertime
TTITLE2=They All Laughed
TTITLE3=Serial Stories
TTITLE4=The Apartment
TTITLE5=What Now Our Love
TTITLE6=Seven O'clock News
TTITLE7=Odd Couple and the Others
TTITLE8=My Blue Heaven
TTITLE9=Party Joke
TTITLE10=Two Sleepy People
TTITLE11=Everytime We Say Goodbye
EXTD=YEAR: 1987
EXTT0=
EXTT1=
EXTT2=
EXTT3=
EXTT4=
EXTT5=
EXTT6=
EXTT7=
EXTT8=
EXTT9=
EXTT10=
EXTT11=
PLAYORDER=
